<svg width="48" height="48" viewBox="0 0 48 48" fill="none"
    xmlns="http://www.w3.org/2000/svg">
    <path fill-rule="evenodd" clip-rule="evenodd" d="M24 7.50003C24 6.9063 23.6498 6.36845 23.1068 6.12826C22.5639 5.88806 21.9303 5.99074 21.491 6.39012L10.9201 16H5.5C3.567 16 2 17.567 2 19.5V28.5C2 30.433 3.567 32 5.5 32H10.9201L21.491 41.6099C21.9303 42.0093 22.5639 42.112 23.1068 41.8718C23.6498 41.6316 24 41.0938 24 40.5V7.50003ZM12.509 18.6099L21 10.8909V37.1092L12.509 29.3901C12.2329 29.1391 11.8731 29 11.5 29H5.5C5.22386 29 5 28.7762 5 28.5V19.5C5 19.2239 5.22386 19 5.5 19H11.5C11.8731 19 12.2329 18.8609 12.509 18.6099Z" fill="white"/>
    <path d="M32.5607 16.4393C31.9749 15.8536 31.0251 15.8536 30.4393 16.4393C29.8536 17.0251 29.8536 17.9749 30.4393 18.5607L35.8787 24L30.4393 29.4393C29.8536 30.0251 29.8536 30.9749 30.4393 31.5607C31.0251 32.1464 31.9749 32.1464 32.5607 31.5607L38 26.1213L43.4393 31.5607C44.0251 32.1464 44.9749 32.1464 45.5607 31.5607C46.1464 30.9749 46.1464 30.0251 45.5607 29.4393L40.1213 24L45.5607 18.5607C46.1464 17.9749 46.1464 17.0251 45.5607 16.4393C44.9749 15.8536 44.0251 15.8536 43.4393 16.4393L38 21.8787L32.5607 16.4393Z" fill="white"/>
</svg>