<svg width="49" height="48" viewBox="0 0 49 48" fill="none"
    xmlns="http://www.w3.org/2000/svg">
    <path fill-rule="evenodd" clip-rule="evenodd" d="M23.6068 6.12826C24.1498 6.36845 24.5 6.9063 24.5 7.50003V40.5C24.5 41.0938 24.1498 41.6316 23.6068 41.8718C23.0639 42.112 22.4303 42.0093 21.991 41.6099L11.4201 32H6C4.067 32 2.5 30.433 2.5 28.5V19.5C2.5 17.567 4.067 16 6 16H11.4201L21.991 6.39012C22.4303 5.99074 23.0639 5.88806 23.6068 6.12826ZM21.5 10.8909L13.009 18.6099C12.7329 18.8609 12.3731 19 12 19H6C5.72386 19 5.5 19.2239 5.5 19.5V28.5C5.5 28.7762 5.72386 29 6 29H12C12.3731 29 12.7329 29.1391 13.009 29.3901L21.5 37.1092V10.8909Z" fill="white"/>
    <path d="M37.935 8.44365C38.5208 7.85787 39.4705 7.85786 40.0563 8.44365C48.6479 17.0352 48.6479 30.9648 40.0563 39.5564C39.4705 40.1421 38.5208 40.1421 37.935 39.5564C37.3492 38.9706 37.3492 38.0208 37.935 37.435C45.355 30.0151 45.355 17.9849 37.935 10.565C37.3492 9.97918 37.3492 9.02944 37.935 8.44365Z" fill="white"/>
    <path d="M32.9852 15.5148C32.3994 14.929 31.4497 14.929 30.8639 15.5148C30.2781 16.1005 30.2781 17.0503 30.8639 17.6361C34.3786 21.1508 34.3786 26.8493 30.8639 30.364C30.2781 30.9498 30.2781 31.8995 30.8639 32.4853C31.4497 33.0711 32.3994 33.0711 32.9852 32.4853C37.6715 27.799 37.6715 20.2011 32.9852 15.5148Z" fill="white"/>
</svg>